# xmcd
# 
# Track frame offsets:
#     150
#     19357
#     43912
#     81855
#     120785
#     144420
#     176092
#     192310
#     212455
#     252737
# 
# Disc length: 3677
# 
# Revision: 2
# Processed by: cddbd v1.5.2PL0 Copyright (c) Steve Scherf et al.
# Submitted via: fre:ac v1.0.31
# 
DISCID=8c0e5b0a
DTITLE=B.B. King - The Living Legend
DYEAR=0
DGENRE=Jazz
TTITLE0=I'm Moving On
TTITLE1=The Thrill Is Gone
TTITLE2=There Is Always One More Time
TTITLE3=Why Sing The Blues
TTITLE4=The Blues Come Over Me
TTITLE5=Sweet Sixteen
TTITLE6=Ain't Nobody Home
TTITLE7=Something Up My Sleeve
TTITLE8=I Gotta Move Out Of This Neighborhood - Nobody Loves Me But My Mothe
TTITLE9=How Blue Can You Get
EXTD=
EXTT0=
EXTT1=
EXTT2=
EXTT3=
EXTT4=
EXTT5=
EXTT6=
EXTT7=
EXTT8=
EXTT9=
PLAYORDER=
